<mxfile host="app.diagrams.net" agent="Mozilla/5.0 (Windows NT 10.0; Win64; x64) AppleWebKit/537.36 (KHTML, like Gecko) Chrome/131.0.0.0 Safari/537.36" version="25.0.3">
  <diagram name="Page-1" id="2ca16b54-16f6-2749-3443-fa8db7711227">
    <mxGraphModel dx="1050" dy="545" grid="1" gridSize="10" guides="1" tooltips="1" connect="1" arrows="1" fold="1" page="1" pageScale="1" pageWidth="1100" pageHeight="850" background="none" math="0" shadow="0">
      <root>
        <mxCell id="0" />
        <mxCell id="1" parent="0" />
        <mxCell id="2ed32ef02a7f4228-2" value="&lt;div style=&quot;box-sizing: border-box ; width: 100% ; background: #e4e4e4 ; padding: 2px&quot;&gt;&lt;font style=&quot;font-size: 14px;&quot;&gt;Customer&lt;/font&gt;&lt;/div&gt;&lt;p style=&quot;margin-top:0in;margin-right:0in;margin-bottom:0in;margin-left:.25in;&lt;br/&gt;text-align:justify&quot;&gt;&lt;span style=&quot;font-family:&amp;quot;Arial&amp;quot;,sans-serif;mso-ascii-theme-font:&lt;br/&gt;minor-bidi;mso-hansi-theme-font:minor-bidi;mso-bidi-font-family:&amp;quot;Times New Roman&amp;quot;;&lt;br/&gt;color:#595959;mso-themecolor:text1;mso-themetint:166&quot;&gt;CustomerID (Primary Key)&lt;/span&gt;&lt;/p&gt;&lt;p style=&quot;margin-top:0in;margin-right:0in;margin-bottom:0in;margin-left:.25in;&lt;br/&gt;text-align:justify&quot;&gt;&lt;span style=&quot;font-family:&amp;quot;Arial&amp;quot;,sans-serif;mso-ascii-theme-font:&lt;br/&gt;minor-bidi;mso-hansi-theme-font:minor-bidi;mso-bidi-font-family:&amp;quot;Times New Roman&amp;quot;;&lt;br/&gt;color:#595959;mso-themecolor:text1;mso-themetint:166&quot;&gt;FirstName&lt;/span&gt;&lt;/p&gt;&lt;p style=&quot;margin-top:0in;margin-right:0in;margin-bottom:0in;margin-left:.25in;&lt;br/&gt;text-align:justify&quot;&gt;&lt;span style=&quot;font-family:&amp;quot;Arial&amp;quot;,sans-serif;mso-ascii-theme-font:&lt;br/&gt;minor-bidi;mso-hansi-theme-font:minor-bidi;mso-bidi-font-family:&amp;quot;Times New Roman&amp;quot;;&lt;br/&gt;color:#595959;mso-themecolor:text1;mso-themetint:166&quot;&gt;LastName&lt;/span&gt;&lt;/p&gt;&lt;p style=&quot;margin-top:0in;margin-right:0in;margin-bottom:0in;margin-left:.25in;&lt;br/&gt;text-align:justify&quot;&gt;&lt;span style=&quot;font-family:&amp;quot;Arial&amp;quot;,sans-serif;mso-ascii-theme-font:&lt;br/&gt;minor-bidi;mso-hansi-theme-font:minor-bidi;mso-bidi-font-family:&amp;quot;Times New Roman&amp;quot;;&lt;br/&gt;color:#595959;mso-themecolor:text1;mso-themetint:166&quot;&gt;Email&lt;/span&gt;&lt;/p&gt;&lt;p style=&quot;margin-top:0in;margin-right:0in;margin-bottom:0in;margin-left:.25in;&lt;br/&gt;text-align:justify&quot;&gt;&lt;span style=&quot;font-family:&amp;quot;Arial&amp;quot;,sans-serif;mso-ascii-theme-font:&lt;br/&gt;minor-bidi;mso-hansi-theme-font:minor-bidi;mso-bidi-font-family:&amp;quot;Times New Roman&amp;quot;;&lt;br/&gt;color:#595959;mso-themecolor:text1;mso-themetint:166&quot;&gt;PhoneNumber&lt;/span&gt;&lt;/p&gt;&lt;p style=&quot;margin-top:0in;margin-right:0in;margin-bottom:0in;margin-left:.25in;&lt;br/&gt;text-align:justify&quot;&gt;&lt;span style=&quot;font-family:&amp;quot;Arial&amp;quot;,sans-serif;mso-ascii-theme-font:&lt;br/&gt;minor-bidi;mso-hansi-theme-font:minor-bidi;mso-bidi-font-family:&amp;quot;Times New Roman&amp;quot;;&lt;br/&gt;color:#595959;mso-themecolor:text1;mso-themetint:166&quot;&gt;Address&lt;/span&gt;&lt;/p&gt;&lt;p style=&quot;margin-top:0in;margin-right:0in;margin-bottom:0in;margin-left:.25in;&lt;br/&gt;text-align:justify&quot;&gt;&lt;span style=&quot;font-family:&amp;quot;Arial&amp;quot;,sans-serif;mso-ascii-theme-font:&lt;br/&gt;minor-bidi;mso-hansi-theme-font:minor-bidi;mso-bidi-font-family:&amp;quot;Times New Roman&amp;quot;;&lt;br/&gt;color:#595959;mso-themecolor:text1;mso-themetint:166&quot;&gt;MembershipDate&lt;/span&gt;&lt;/p&gt;&lt;table style=&quot;width: 100% ; font-size: 1em&quot; cellpadding=&quot;2&quot; cellspacing=&quot;0&quot;&gt;&lt;tbody&gt;&lt;/tbody&gt;&lt;/table&gt;" style="verticalAlign=top;align=left;overflow=fill;html=1;rounded=0;shadow=0;comic=0;labelBackgroundColor=none;strokeWidth=1;fontFamily=Verdana;fontSize=12" parent="1" vertex="1">
          <mxGeometry x="50" y="100" width="210" height="150" as="geometry" />
        </mxCell>
        <mxCell id="2ed32ef02a7f4228-6" value="&lt;div style=&quot;box-sizing: border-box ; width: 100% ; background: #e4e4e4 ; padding: 2px&quot;&gt;&lt;b style=&quot;background-color: rgb(251, 251, 251);&quot;&gt;&lt;span style=&quot;font-family: Arial, sans-serif;&quot;&gt;&lt;font style=&quot;font-size: 14px;&quot;&gt;Date&lt;/font&gt;&lt;/span&gt;&lt;/b&gt;&lt;/div&gt;&lt;table style=&quot;width: 100% ; font-size: 1em&quot; cellpadding=&quot;2&quot; cellspacing=&quot;0&quot;&gt;&lt;tbody&gt;&lt;tr&gt;&lt;td&gt;&lt;pre style=&quot;margin-top:0in;margin-right:0in;margin-bottom:0in;margin-left:.25in;&lt;br/&gt;text-align:justify&quot;&gt;&lt;span style=&quot;background-color: initial; font-family: Arial, sans-serif; font-size: 1em;&quot;&gt;DateID (Primary Key)&lt;br&gt;&lt;/span&gt;&lt;span style=&quot;font-family:&amp;quot;Arial&amp;quot;,sans-serif;mso-ascii-theme-font:&lt;br/&gt;minor-bidi;mso-hansi-theme-font:minor-bidi;mso-bidi-font-family:&amp;quot;Times New Roman&amp;quot;;&lt;br/&gt;color:#595959;mso-themecolor:text1;mso-themetint:166&quot;&gt;Date&lt;br&gt;&lt;/span&gt;&lt;span style=&quot;font-family:&amp;quot;Arial&amp;quot;,sans-serif;mso-ascii-theme-font:&lt;br/&gt;minor-bidi;mso-hansi-theme-font:minor-bidi;mso-bidi-font-family:&amp;quot;Times New Roman&amp;quot;;&lt;br/&gt;color:#595959;mso-themecolor:text1;mso-themetint:166&quot;&gt;Year&lt;br&gt;&lt;/span&gt;&lt;span style=&quot;font-family:&amp;quot;Arial&amp;quot;,sans-serif;mso-ascii-theme-font:&lt;br/&gt;minor-bidi;mso-hansi-theme-font:minor-bidi;mso-bidi-font-family:&amp;quot;Times New Roman&amp;quot;;&lt;br/&gt;color:#595959;mso-themecolor:text1;mso-themetint:166&quot;&gt;Quarter&lt;br&gt;&lt;/span&gt;&lt;span style=&quot;font-family:&amp;quot;Arial&amp;quot;,sans-serif;mso-ascii-theme-font:&lt;br/&gt;minor-bidi;mso-hansi-theme-font:minor-bidi;mso-bidi-font-family:&amp;quot;Times New Roman&amp;quot;;&lt;br/&gt;color:#595959;mso-themecolor:text1;mso-themetint:166&quot;&gt;Month&lt;br&gt;&lt;/span&gt;&lt;span style=&quot;font-family:&amp;quot;Arial&amp;quot;,sans-serif;mso-ascii-theme-font:&lt;br/&gt;minor-bidi;mso-hansi-theme-font:minor-bidi;mso-bidi-font-family:&amp;quot;Times New Roman&amp;quot;;&lt;br/&gt;color:#595959;mso-themecolor:text1;mso-themetint:166&quot;&gt;DayOfWeek&lt;/span&gt;&lt;/pre&gt;&lt;/td&gt;&lt;td&gt;&lt;br&gt;&lt;/td&gt;&lt;/tr&gt;&lt;/tbody&gt;&lt;/table&gt;" style="verticalAlign=top;align=left;overflow=fill;html=1;rounded=0;shadow=0;comic=0;labelBackgroundColor=none;strokeWidth=1;fontFamily=Verdana;fontSize=12" parent="1" vertex="1">
          <mxGeometry x="830" y="100" width="180" height="137" as="geometry" />
        </mxCell>
        <mxCell id="2ed32ef02a7f4228-8" value="&lt;div style=&quot;box-sizing: border-box ; width: 100% ; background: #e4e4e4 ; padding: 2px&quot;&gt;&lt;font style=&quot;font-size: 14px;&quot;&gt;&lt;b&gt;Book&lt;/b&gt;&lt;/font&gt;&lt;span style=&quot;white-space-collapse: preserve; background-color: initial;&quot;&gt;&#x9;&lt;/span&gt;&lt;/div&gt;&lt;span style=&quot;background-color: initial; white-space-collapse: preserve;&quot;&gt;&#x9;&lt;/span&gt;BookID (Primary Key)&lt;div&gt;&lt;span style=&quot;background-color: initial;&quot;&gt;&lt;span style=&quot;white-space: pre;&quot;&gt;&#x9;&lt;/span&gt;Title&lt;/span&gt;&lt;br&gt;&lt;span style=&quot;background-color: initial; white-space-collapse: preserve;&quot;&gt;&#x9;&lt;/span&gt;&lt;span style=&quot;background-color: initial;&quot;&gt;Author&lt;/span&gt;&lt;br&gt;&lt;span style=&quot;background-color: initial;&quot;&gt;&lt;span style=&quot;white-space-collapse: preserve;&quot;&gt;&#x9;&lt;/span&gt;Publishe&lt;/span&gt;&lt;span style=&quot;background-color: initial;&quot;&gt;r&lt;/span&gt;&lt;br&gt;&lt;span style=&quot;background-color: initial; white-space-collapse: preserve;&quot;&gt;&#x9;&lt;/span&gt;&lt;span style=&quot;background-color: initial;&quot;&gt;ISBN&lt;/span&gt;&lt;br&gt;&lt;span style=&quot;background-color: initial; white-space-collapse: preserve;&quot;&gt;&#x9;&lt;/span&gt;&lt;span style=&quot;background-color: initial;&quot;&gt;Price&lt;/span&gt;&lt;br&gt;&lt;span style=&quot;background-color: initial; white-space-collapse: preserve;&quot;&gt;&#x9;&lt;/span&gt;&lt;span style=&quot;background-color: initial;&quot;&gt;Genre&lt;/span&gt;&lt;br&gt;&lt;span style=&quot;background-color: initial; white-space-collapse: preserve;&quot;&gt;&#x9;&lt;/span&gt;&lt;span style=&quot;background-color: initial;&quot;&gt;PublicationDate&lt;/span&gt;&lt;br&gt;&lt;div&gt;&lt;br&gt;&lt;/div&gt;&lt;/div&gt;" style="verticalAlign=top;align=left;overflow=fill;html=1;rounded=0;shadow=0;comic=0;labelBackgroundColor=none;strokeWidth=1;fontFamily=Verdana;fontSize=12" parent="1" vertex="1">
          <mxGeometry x="830" y="350" width="180" height="150" as="geometry" />
        </mxCell>
        <mxCell id="h2hBRdDHkFJv4tZZHOCW-15" style="edgeStyle=elbowEdgeStyle;rounded=0;orthogonalLoop=1;jettySize=auto;html=1;exitX=1.006;exitY=0.328;exitDx=0;exitDy=0;entryX=1;entryY=0.25;entryDx=0;entryDy=0;exitPerimeter=0;" edge="1" parent="1" source="2ed32ef02a7f4228-9" target="2ed32ef02a7f4228-11">
          <mxGeometry relative="1" as="geometry">
            <mxPoint x="730" y="140" as="targetPoint" />
            <mxPoint x="660" y="325" as="sourcePoint" />
            <Array as="points">
              <mxPoint x="790" y="282.5" />
            </Array>
          </mxGeometry>
        </mxCell>
        <mxCell id="h2hBRdDHkFJv4tZZHOCW-16" value="&lt;span style=&quot;font-family: Arial, sans-serif; font-size: 12px; text-align: left; background-color: rgb(251, 251, 251);&quot;&gt;OrderID&amp;nbsp;&lt;/span&gt;" style="edgeLabel;html=1;align=center;verticalAlign=middle;resizable=0;points=[];" vertex="1" connectable="0" parent="h2hBRdDHkFJv4tZZHOCW-15">
          <mxGeometry x="0.7845" y="-5" relative="1" as="geometry">
            <mxPoint x="19" y="88" as="offset" />
          </mxGeometry>
        </mxCell>
        <mxCell id="2ed32ef02a7f4228-9" value="&lt;div style=&quot;box-sizing:border-box;width:100%;background:#e4e4e4;padding:2px;&quot;&gt;&lt;b style=&quot;text-align: justify; background-color: rgb(251, 251, 251);&quot;&gt;&lt;span style=&quot;font-family: Arial, sans-serif; color: rgb(89, 89, 89);&quot;&gt;&lt;font style=&quot;font-size: 14px;&quot;&gt;Sales&lt;/font&gt;&lt;/span&gt;&lt;/b&gt;&lt;/div&gt;&lt;table style=&quot;width:100%;font-size:1em;&quot; cellpadding=&quot;2&quot; cellspacing=&quot;0&quot;&gt;&lt;tbody&gt;&lt;tr&gt;&lt;td&gt;&lt;pre style=&quot;margin-top:0in;margin-right:0in;margin-bottom:0in;margin-left:.25in;&lt;br/&gt;text-align:justify&quot;&gt;&lt;span style=&quot;color: rgb(89, 89, 89); font-family: Arial, sans-serif; font-size: 1em; background-color: initial;&quot;&gt;SalesID (Primary Key)&lt;br&gt;&lt;/span&gt;&lt;span style=&quot;font-family:&amp;quot;Arial&amp;quot;,sans-serif;mso-ascii-theme-font:&lt;br/&gt;minor-bidi;mso-hansi-theme-font:minor-bidi;mso-bidi-font-family:&amp;quot;Times New Roman&amp;quot;;&lt;br/&gt;color:#595959;mso-themecolor:text1;mso-themetint:166&quot;&gt;OrderID (Foreign Key referencing OrderID in Order table)&lt;br&gt;&lt;/span&gt;&lt;span style=&quot;font-family:&amp;quot;Arial&amp;quot;,sans-serif;mso-ascii-theme-font:&lt;br/&gt;minor-bidi;mso-hansi-theme-font:minor-bidi;mso-bidi-font-family:&amp;quot;Times New Roman&amp;quot;;&lt;br/&gt;color:#595959;mso-themecolor:text1;mso-themetint:166&quot;&gt;BookID (Foreign Key&lt;br&gt;&lt;/span&gt;&lt;span style=&quot;font-family:&amp;quot;Arial&amp;quot;,sans-serif;mso-ascii-theme-font:&lt;br/&gt;minor-bidi;mso-hansi-theme-font:minor-bidi;mso-bidi-font-family:&amp;quot;Times New Roman&amp;quot;;&lt;br/&gt;color:#595959;mso-themecolor:text1;mso-themetint:166&quot;&gt;referencing BookID in Book table)&lt;br&gt;&lt;/span&gt;&lt;span style=&quot;font-family:&amp;quot;Arial&amp;quot;,sans-serif;mso-ascii-theme-font:&lt;br/&gt;minor-bidi;mso-hansi-theme-font:minor-bidi;mso-bidi-font-family:&amp;quot;Times New Roman&amp;quot;;&lt;br/&gt;color:#595959;mso-themecolor:text1;mso-themetint:166&quot;&gt;Quantity&lt;br&gt;&lt;/span&gt;&lt;span style=&quot;font-family:&amp;quot;Arial&amp;quot;,sans-serif;mso-ascii-theme-font:&lt;br/&gt;minor-bidi;mso-hansi-theme-font:minor-bidi;mso-bidi-font-family:&amp;quot;Times New Roman&amp;quot;;&lt;br/&gt;color:#595959;mso-themecolor:text1;mso-themetint:166&quot;&gt;SalePrice&lt;/span&gt;&lt;/pre&gt;&lt;/td&gt;&lt;td&gt;&lt;br&gt;&lt;/td&gt;&lt;/tr&gt;&lt;/tbody&gt;&lt;/table&gt;" style="verticalAlign=top;align=left;overflow=fill;html=1;rounded=0;shadow=0;comic=0;labelBackgroundColor=none;strokeWidth=1;fontFamily=Verdana;fontSize=12" parent="1" vertex="1">
          <mxGeometry x="320" y="280" width="340" height="140" as="geometry" />
        </mxCell>
        <mxCell id="2ed32ef02a7f4228-10" value="&lt;div style=&quot;box-sizing: border-box ; width: 100% ; background: #e4e4e4 ; padding: 2px&quot;&gt;&lt;p style=&quot;margin-top:0in;margin-right:0in;margin-bottom:0in;margin-left:.25in;&lt;br/&gt;text-align:justify&quot;&gt;&lt;font style=&quot;font-size: 14px;&quot;&gt;&lt;b style=&quot;&quot;&gt;&lt;span style=&quot;font-family: Arial, sans-serif;&quot;&gt;Employee&lt;/span&gt;&lt;/b&gt;&lt;/font&gt;&lt;/p&gt;&lt;/div&gt;&lt;div&gt;&lt;div&gt;&lt;span style=&quot;white-space-collapse: preserve; background-color: initial;&quot;&gt;&#x9;&lt;/span&gt;&lt;/div&gt;&lt;div&gt;&lt;span style=&quot;background-color: initial;&quot;&gt;&lt;span style=&quot;white-space: pre;&quot;&gt;&#x9;&lt;/span&gt;EmployeeID (Primary Key)&lt;/span&gt;&lt;/div&gt;&lt;div&gt;&lt;span style=&quot;background-color: initial; font-family: Arial, sans-serif;&quot;&gt;&lt;span style=&quot;white-space: pre;&quot;&gt;&#x9;&lt;/span&gt;FirstName&lt;/span&gt;&lt;/div&gt;&lt;div&gt;&lt;/div&gt;&lt;div&gt;&lt;div&gt;&lt;p style=&quot;margin-top:0in;margin-right:0in;margin-bottom:0in;margin-left:.25in;&lt;br/&gt;text-align:justify&quot;&gt;&lt;span style=&quot;font-family:&amp;quot;Arial&amp;quot;,sans-serif;mso-ascii-theme-font:&lt;br/&gt;minor-bidi;mso-hansi-theme-font:minor-bidi;mso-bidi-font-family:&amp;quot;Times New Roman&amp;quot;;&lt;br/&gt;color:#595959;mso-themecolor:text1;mso-themetint:166&quot;&gt;LastName&lt;/span&gt;&lt;/p&gt;&lt;p style=&quot;margin-top:0in;margin-right:0in;margin-bottom:0in;margin-left:.25in;&lt;br/&gt;text-align:justify&quot;&gt;&lt;span style=&quot;font-family:&amp;quot;Arial&amp;quot;,sans-serif;mso-ascii-theme-font:&lt;br/&gt;minor-bidi;mso-hansi-theme-font:minor-bidi;mso-bidi-font-family:&amp;quot;Times New Roman&amp;quot;;&lt;br/&gt;color:#595959;mso-themecolor:text1;mso-themetint:166&quot;&gt;Position&lt;/span&gt;&lt;/p&gt;&lt;p style=&quot;margin-top:0in;margin-right:0in;margin-bottom:0in;margin-left:.25in;&lt;br/&gt;text-align:justify&quot;&gt;&lt;span style=&quot;font-family:&amp;quot;Arial&amp;quot;,sans-serif;mso-ascii-theme-font:&lt;br/&gt;minor-bidi;mso-hansi-theme-font:minor-bidi;mso-bidi-font-family:&amp;quot;Times New Roman&amp;quot;;&lt;br/&gt;color:#595959;mso-themecolor:text1;mso-themetint:166&quot;&gt;HireDate&lt;/span&gt;&lt;/p&gt;&lt;p style=&quot;margin-top:0in;margin-right:0in;margin-bottom:0in;margin-left:.25in;&lt;br/&gt;text-align:justify&quot;&gt;&lt;span style=&quot;font-family:&amp;quot;Arial&amp;quot;,sans-serif;mso-ascii-theme-font:&lt;br/&gt;minor-bidi;mso-hansi-theme-font:minor-bidi;mso-bidi-font-family:&amp;quot;Times New Roman&amp;quot;;&lt;br/&gt;color:#595959;mso-themecolor:text1;mso-themetint:166&quot;&gt;Salary&lt;/span&gt;&lt;/p&gt;&lt;/div&gt;&lt;/div&gt;&lt;/div&gt;" style="verticalAlign=top;align=left;overflow=fill;html=1;rounded=0;shadow=0;comic=0;labelBackgroundColor=none;strokeWidth=1;fontFamily=Verdana;fontSize=12" parent="1" vertex="1">
          <mxGeometry x="50" y="280" width="210" height="140" as="geometry" />
        </mxCell>
        <mxCell id="h2hBRdDHkFJv4tZZHOCW-18" style="edgeStyle=elbowEdgeStyle;rounded=0;orthogonalLoop=1;jettySize=auto;html=1;exitX=0;exitY=0.5;exitDx=0;exitDy=0;" edge="1" parent="1">
          <mxGeometry relative="1" as="geometry">
            <mxPoint x="260" y="130" as="targetPoint" />
            <mxPoint x="320" y="147" as="sourcePoint" />
          </mxGeometry>
        </mxCell>
        <mxCell id="h2hBRdDHkFJv4tZZHOCW-20" style="edgeStyle=elbowEdgeStyle;rounded=0;orthogonalLoop=1;jettySize=auto;html=1;exitX=1.004;exitY=0.569;exitDx=0;exitDy=0;entryX=0;entryY=0.25;entryDx=0;entryDy=0;exitPerimeter=0;" edge="1" parent="1" source="2ed32ef02a7f4228-11" target="2ed32ef02a7f4228-6">
          <mxGeometry relative="1" as="geometry">
            <mxPoint x="820" y="150" as="targetPoint" />
            <Array as="points">
              <mxPoint x="810" y="160" />
            </Array>
          </mxGeometry>
        </mxCell>
        <mxCell id="2ed32ef02a7f4228-11" value="&lt;div style=&quot;box-sizing:border-box;width:100%;background:#e4e4e4;padding:2px;&quot;&gt;&lt;span style=&quot;text-align: justify; background-color: rgb(251, 251, 251);&quot;&gt;&lt;span style=&quot;font-family: Arial, sans-serif; color: rgb(89, 89, 89);&quot;&gt;&lt;font style=&quot;font-size: 14px;&quot;&gt;&lt;b&gt;Order&lt;/b&gt;&lt;/font&gt;&lt;/span&gt;&lt;/span&gt;&lt;/div&gt;&lt;table style=&quot;width:100%;font-size:1em;&quot; cellpadding=&quot;2&quot; cellspacing=&quot;0&quot;&gt;&lt;tbody&gt;&lt;tr&gt;&lt;td&gt;&lt;p style=&quot;margin-top:0in;margin-right:0in;margin-bottom:0in;margin-left:.25in;&lt;br/&gt;text-align:justify&quot;&gt;&lt;span style=&quot;font-family: Arial, sans-serif; font-size: 1em; background-color: initial;&quot;&gt;OrderID (Primary Key)&lt;/span&gt;&lt;/p&gt;&lt;p style=&quot;margin-top:0in;margin-right:0in;margin-bottom:0in;margin-left:.25in;&lt;br/&gt;text-align:justify&quot;&gt;&lt;span style=&quot;font-family:&amp;quot;Arial&amp;quot;,sans-serif;mso-ascii-theme-font:&lt;br/&gt;minor-bidi;mso-hansi-theme-font:minor-bidi;mso-bidi-font-family:&amp;quot;Times New Roman&amp;quot;;&lt;br/&gt;color:#595959;mso-themecolor:text1;mso-themetint:166&quot;&gt;CustomerID (Foreign Key referencing CustomerID in Customer table)&lt;/span&gt;&lt;/p&gt;&lt;p style=&quot;margin-top:0in;margin-right:0in;margin-bottom:0in;margin-left:.25in;&lt;br/&gt;text-align:justify&quot;&gt;&lt;span style=&quot;font-family:&amp;quot;Arial&amp;quot;,sans-serif;mso-ascii-theme-font:&lt;br/&gt;minor-bidi;mso-hansi-theme-font:minor-bidi;mso-bidi-font-family:&amp;quot;Times New Roman&amp;quot;;&lt;br/&gt;color:#595959;mso-themecolor:text1;mso-themetint:166&quot;&gt;OrderDate&lt;/span&gt;&lt;/p&gt;&lt;p style=&quot;margin-top:0in;margin-right:0in;margin-bottom:0in;margin-left:.25in;&lt;br/&gt;text-align:justify&quot;&gt;&lt;span style=&quot;font-family:&amp;quot;Arial&amp;quot;,sans-serif;mso-ascii-theme-font:&lt;br/&gt;minor-bidi;mso-hansi-theme-font:minor-bidi;mso-bidi-font-family:&amp;quot;Times New Roman&amp;quot;;&lt;br/&gt;color:#595959;mso-themecolor:text1;mso-themetint:166&quot;&gt;TotalAmount&lt;/span&gt;&lt;/p&gt;&lt;/td&gt;&lt;td&gt;&lt;br&gt;&lt;/td&gt;&lt;/tr&gt;&lt;/tbody&gt;&lt;/table&gt;" style="verticalAlign=top;align=left;overflow=fill;html=1;rounded=0;shadow=0;comic=0;labelBackgroundColor=none;strokeWidth=1;fontFamily=Verdana;fontSize=12" parent="1" vertex="1">
          <mxGeometry x="320" y="100" width="410" height="110" as="geometry" />
        </mxCell>
        <mxCell id="h2hBRdDHkFJv4tZZHOCW-7" value="" style="endArrow=classic;html=1;rounded=0;edgeStyle=entityRelationEdgeStyle;elbow=vertical;entryX=-0.024;entryY=0.199;entryDx=0;entryDy=0;entryPerimeter=0;exitX=1.006;exitY=0.447;exitDx=0;exitDy=0;exitPerimeter=0;" edge="1" parent="1" source="2ed32ef02a7f4228-9" target="2ed32ef02a7f4228-8">
          <mxGeometry relative="1" as="geometry">
            <mxPoint x="684.4200000000001" y="483.82000000000005" as="sourcePoint" />
            <mxPoint x="730" y="330" as="targetPoint" />
          </mxGeometry>
        </mxCell>
        <mxCell id="h2hBRdDHkFJv4tZZHOCW-9" value="Book ID" style="edgeLabel;resizable=0;html=1;;align=left;verticalAlign=bottom;" connectable="0" vertex="1" parent="h2hBRdDHkFJv4tZZHOCW-7">
          <mxGeometry x="-1" relative="1" as="geometry">
            <mxPoint x="88" y="37" as="offset" />
          </mxGeometry>
        </mxCell>
        <mxCell id="h2hBRdDHkFJv4tZZHOCW-11" value="1:m" style="edgeLabel;html=1;align=center;verticalAlign=middle;resizable=0;points=[];" vertex="1" connectable="0" parent="h2hBRdDHkFJv4tZZHOCW-7">
          <mxGeometry x="0.0028" y="-2" relative="1" as="geometry">
            <mxPoint x="-13" y="-3" as="offset" />
          </mxGeometry>
        </mxCell>
      </root>
    </mxGraphModel>
  </diagram>
</mxfile>
